<svg class="marks" width="955" height="647" viewBox="0 0 955 647" version="1.1" xmlns="http://www.w3.org/2000/svg" xmlns:xlink="http://www.w3.org/1999/xlink"><rect width="955" height="647" style="fill: #F3F7F7;"></rect><g transform="translate(41,116)"><g class="mark-group role-frame root"><g transform="translate(0,0)"><path class="background" d="M0.5,0.5h750v450h-750Z" style="fill: none; stroke: #ddd;"></path><g><g class="mark-group role-axis"><g transform="translate(0.5,450.5)"><path class="background" d="M0,0h0v0h0Z" style="pointer-events: none; fill: none;"></path><g><g class="mark-rule role-axis-grid" style="pointer-events: none;"><line transform="translate(0,-450)" x2="0" y2="450" style="fill: none; stroke: #81858C; stroke-width: 1; stroke-dasharray: 0.5,1; opacity: 1;"></line><line transform="translate(205,-450)" x2="0" y2="450" style="fill: none; stroke: #81858C; stroke-width: 1; stroke-dasharray: 0.5,1; opacity: 1;"></line><line transform="translate(350,-450)" x2="0" y2="450" style="fill: none; stroke: #81858C; stroke-width: 1; stroke-dasharray: 0.5,1; opacity: 1;"></line><line transform="translate(750,-450)" x2="0" y2="450" style="fill: none; stroke: #81858C; stroke-width: 1; stroke-dasharray: 0.5,1; opacity: 1;"></line></g></g><path class="foreground" d="" style="pointer-events: none; display: none; fill: none;"></path></g></g><g class="mark-group role-axis"><g transform="translate(0.5,0.5)"><path class="background" d="M0,0h0v0h0Z" style="pointer-events: none; fill: none;"></path><g><g class="mark-rule role-axis-grid" style="pointer-events: none;"><line transform="translate(-50,450)" x2="800" y2="0" style="fill: none; stroke: #81858C; stroke-width: 1; stroke-dasharray: 0.5,1; opacity: 1;"></line><line transform="translate(-50,394)" x2="800" y2="0" style="fill: none; stroke: #81858C; stroke-width: 1; stroke-dasharray: 0.5,1; opacity: 1;"></line><line transform="translate(-50,338)" x2="800" y2="0" style="fill: none; stroke: #81858C; stroke-width: 1; stroke-dasharray: 0.5,1; opacity: 1;"></line><line transform="translate(-50,281)" x2="800" y2="0" style="fill: none; stroke: #81858C; stroke-width: 1; stroke-dasharray: 0.5,1; opacity: 1;"></line><line transform="translate(-50,225)" x2="800" y2="0" style="fill: none; stroke: #81858C; stroke-width: 1; stroke-dasharray: 0.5,1; opacity: 1;"></line><line transform="translate(-50,169)" x2="800" y2="0" style="fill: none; stroke: #81858C; stroke-width: 1; stroke-dasharray: 0.5,1; opacity: 1;"></line><line transform="translate(-50,113)" x2="800" y2="0" style="fill: none; stroke: #81858C; stroke-width: 1; stroke-dasharray: 0.5,1; opacity: 1;"></line><line transform="translate(-50,56)" x2="800" y2="0" style="fill: none; stroke: #81858C; stroke-width: 1; stroke-dasharray: 0.5,1; opacity: 1;"></line></g></g><path class="foreground" d="" style="pointer-events: none; display: none; fill: none;"></path></g></g><g class="mark-group role-axis"><g transform="translate(0.5,450.5)"><path class="background" d="M0,0h0v0h0Z" style="pointer-events: none; fill: none;"></path><g><g class="mark-rule role-axis-tick" style="pointer-events: none;"><line transform="translate(0,0)" x2="0" y2="5" style="fill: none; stroke: #888; stroke-width: 1; opacity: 1;"></line><line transform="translate(205,0)" x2="0" y2="5" style="fill: none; stroke: #888; stroke-width: 1; opacity: 1;"></line><line transform="translate(350,0)" x2="0" y2="5" style="fill: none; stroke: #888; stroke-width: 1; opacity: 1;"></line><line transform="translate(750,0)" x2="0" y2="5" style="fill: none; stroke: #888; stroke-width: 1; opacity: 1;"></line></g><g class="mark-text role-axis-label" style="pointer-events: none;"><text text-anchor="middle" transform="translate(0,18)" style="font-family: Ubuntu Mono; font-size: 14px; fill: #494F59; opacity: 1;">1950</text><text text-anchor="middle" transform="translate(204.99999999999997,18)" style="font-family: Ubuntu Mono; font-size: 14px; fill: #494F59; opacity: 1;">1991</text><text text-anchor="middle" transform="translate(350,18)" style="font-family: Ubuntu Mono; font-size: 14px; fill: #494F59; opacity: 1;">2020</text><text text-anchor="end" transform="translate(750,18)" style="font-family: Ubuntu Mono; font-size: 14px; fill: #494F59; opacity: 1;">2100</text></g><g class="mark-rule role-axis-domain" style="pointer-events: none;"><line transform="translate(-50,0)" x2="800" y2="0" style="fill: none; stroke: #888; stroke-width: 1; stroke-dasharray: 0.5,1; opacity: 1;"></line></g></g><path class="foreground" d="" style="pointer-events: none; display: none; fill: none;"></path></g></g><g class="mark-group role-axis"><g transform="translate(0.5,0.5)"><path class="background" d="M0,0h0v0h0Z" style="pointer-events: none; fill: none;"></path><g><g class="mark-rule role-axis-tick" style="pointer-events: none;"><line transform="translate(0,450)" x2="-5" y2="0" style="fill: none; stroke: #888; stroke-width: 1; opacity: 1;"></line><line transform="translate(0,394)" x2="-5" y2="0" style="fill: none; stroke: #888; stroke-width: 1; opacity: 1;"></line><line transform="translate(0,338)" x2="-5" y2="0" style="fill: none; stroke: #888; stroke-width: 1; opacity: 1;"></line><line transform="translate(0,281)" x2="-5" y2="0" style="fill: none; stroke: #888; stroke-width: 1; opacity: 1;"></line><line transform="translate(0,225)" x2="-5" y2="0" style="fill: none; stroke: #888; stroke-width: 1; opacity: 1;"></line><line transform="translate(0,169)" x2="-5" y2="0" style="fill: none; stroke: #888; stroke-width: 1; opacity: 1;"></line><line transform="translate(0,113)" x2="-5" y2="0" style="fill: none; stroke: #888; stroke-width: 1; opacity: 1;"></line><line transform="translate(0,56)" x2="-5" y2="0" style="fill: none; stroke: #888; stroke-width: 1; opacity: 1;"></line></g><g class="mark-text role-axis-label" style="pointer-events: none;"><text text-anchor="end" transform="translate(-7,454)" style="font-family: Ubuntu Mono; font-size: 14px; fill: #494F59; opacity: 1;">15</text><text text-anchor="end" transform="translate(-7,397.75)" style="font-family: Ubuntu Mono; font-size: 14px; fill: #494F59; opacity: 1;">20</text><text text-anchor="end" transform="translate(-7,341.5)" style="font-family: Ubuntu Mono; font-size: 14px; fill: #494F59; opacity: 1;">25</text><text text-anchor="end" transform="translate(-7,285.25)" style="font-family: Ubuntu Mono; font-size: 14px; fill: #494F59; opacity: 1;">30</text><text text-anchor="end" transform="translate(-7,229)" style="font-family: Ubuntu Mono; font-size: 14px; fill: #494F59; opacity: 1;">35</text><text text-anchor="end" transform="translate(-7,172.75)" style="font-family: Ubuntu Mono; font-size: 14px; fill: #494F59; opacity: 1;">40</text><text text-anchor="end" transform="translate(-7,116.5)" style="font-family: Ubuntu Mono; font-size: 14px; fill: #494F59; opacity: 1;">45</text><text text-anchor="end" transform="translate(-7,60.25)" style="font-family: Ubuntu Mono; font-size: 14px; fill: #494F59; opacity: 1;">50</text></g><g class="mark-rule role-axis-domain" style="pointer-events: none;"><line transform="translate(0,450)" x2="0" y2="-450" style="fill: none; stroke: #888; stroke-width: 1; stroke-dasharray: 0.5,1; opacity: 1;"></line></g></g><path class="foreground" d="" style="pointer-events: none; display: none; fill: none;"></path></g></g><g class="mark-group role-scope layer_0_pathgroup"><g transform="translate(0,0)"><path class="background" d="M0,0h750v450h-750Z" style="fill: none;"></path><g><g class="mark-line role-mark layer_0_marks"><path d="M0,199.15154999999996L5.000000000000007,193.325175L10,187.19912250000002L15,180.94709250000002L20,174.69671625000004L25,168.53081625L30,162.48336749999999L35,156.54353624999996L40,150.66120375000003L45,144.76004999999995L50,138.7727325000001L55,132.67852875000008L60.000000000000014,126.53744625000003L64.99999999999999,120.50317124999995L70,114.78421124999997L75,109.52379L80,104.79394124999996L85.00000000000001,100.53878624999997L90,96.61706999999996L95,92.82049874999997L100,89.00030250000002L105,85.10615999999995L110,81.19118250000008L115,77.33442374999997L120,73.65799124999997L125,70.24880249999998L130,67.13179874999999L135,64.26992250000006L140,61.61282999999999L145,59.08502249999995L150,56.63393999999995L154.99999999999997,54.26551124999997L160,52.00797374999991L165,49.85971875000001L170.00000000000003,47.821769999999994L175,45.90815625000003L179.99999999999997,44.128608749999984L185,42.52600125000002L190,41.19309000000003L195.00000000000003,40.24869750000004L200,39.79011375000005L204.99999999999997,39.810678750000015L210,40.320483750000015L215,41.44485375000002L220.00000000000003,43.337576250000104L225,46.082441250000024L230,49.71974624999992L235,54.14309999999997L240,59.10161624999997L245,64.25168624999998L250,69.32184750000003L255,74.23145999999998L260,78.97462875000001L265,83.44729125000003L270,87.55324874999998L275,91.22878124999993L280,94.41678374999994L285,97.12859624999994L290,99.46452375L295,101.57690250000002L300,103.58903250000002L305,105.52668750000001L310,107.39469374999997L315,109.27138500000001L320,111.24528749999998L325,113.38159499999999L330,115.72078500000002L335,118.26328500000004L340,120.98072250000007L345,123.82151625000003L350,126.74521124999994" style="fill: none; stroke: #599EC9; stroke-width: 2;"></path></g></g><path class="foreground" d="" style="display: none; fill: none;"></path></g></g><g class="mark-group role-scope layer_1_pathgroup"><g transform="translate(0,0)"><path class="background" d="M0,0h750v450h-750Z" style="fill: none;"></path><g><g class="mark-line role-mark layer_1_marks"><path d="M350,126.74521124999994L355,129.7482525L359.99999999999994,132.83864999999997L365.00000000000006,135.99780750000002L370,139.20447375L375,142.44087374999995L380,145.69632000000004L384.99999999999994,148.96526625000004L390.00000000000006,152.24371875L395,155.5305975L400,158.82375375000004L405,162.11883374999996L409.99999999999994,165.41010000000009L415.00000000000006,168.69299624999996L420,171.96302249999997L425,175.21689375L430,178.45202250000003L434.99999999999994,181.66810499999994L440.00000000000006,184.86644624999997L445,188.05032L450,191.22198750000004L455,194.38187624999995L459.99999999999994,197.53034624999992L465.00000000000006,200.66923125000002L470,203.80107375000003L475,206.92819125L480,210.05167500000005L484.99999999999994,213.17246999999992L490.00000000000006,216.29237624999996L495,219.41288999999995L500,222.5357325L505,225.66104999999996L510,228.78903375000004L515,231.92155124999996L520,235.06051499999995L525,238.20681374999998L530,241.35999750000002L535,244.51791750000004L540,247.67785125000006L545,250.83587250000002L550,253.98838125000003L555,257.1324525L560,260.26504875L565,263.38113000000004L570,266.47533L575,269.5422825L580,272.578185L585,275.57892L590,278.53898625L595,281.451915L600,284.31250874999995L605,287.11738125L610,289.8633375L615,292.5461925L620,295.16184L625,297.706995L630,300.180015L635,302.58052875000004L640,304.9078275L645,307.16181L650,309.34323L655,311.453235L660,313.49406375L665,315.47028375L670,317.387565L675,319.2513975L680,321.06506625000003L685,322.83243L690,324.5604975L695,326.25713249999995L700,327.92925375L705,329.58195750000004L710,331.2187987500001L715,332.84259000000003L720,334.45550249999997L725,336.06017999999995L730,337.66003125L735,339.2588025L740,340.861275L745,342.4725675L750,344.09866500000004" style="fill: none; stroke: #E18B95; stroke-width: 2; stroke-dasharray: 4,1;"></path></g></g><path class="foreground" d="" style="display: none; fill: none;"></path></g><g transform="translate(0,0)"><path class="background" d="M0,0h750v450h-750Z" style="fill: none;"></path><g><g class="mark-line role-mark layer_1_marks"><path d="M350,126.74521124999994L355,129.25145249999994L359.99999999999994,131.70532500000002L365.00000000000006,134.11585125000005L370,136.4896125L375,138.83040000000005L380,141.13936124999998L384.99999999999994,143.4146174999999L390.00000000000006,145.65228750000006L395,147.84694875L400,149.99413500000006L405,152.09249624999998L409.99999999999994,154.14617250000003L415.00000000000006,156.16573874999997L420,158.16526875000005L425,160.15522499999997L430,162.13903874999997L434.99999999999994,164.11459499999998L440.00000000000006,166.07765249999994L445,168.02228249999996L450,169.94334375L455,171.83974500000005L459.99999999999994,173.71245375L465.00000000000006,175.55962499999998L470,177.37935749999994L475,179.16991875L480,180.93018374999997L484.99999999999994,182.658825L490.00000000000006,184.3545712499999L495,186.01597124999992L500,187.6418325L505,189.23069250000003L510,190.78167374999998L515,192.2951925L520,193.77212624999996L525,195.21267749999998L530,196.61600249999995L535,197.980515L540,199.30453875000003L545,200.5852725L550,201.820995L555,203.00946749999997L560,204.14926125000002L565,205.2392962499999L570,206.27881874999994L575,207.2664899999999L580,208.20008249999998L585,209.07706499999995L590,209.89361249999996L595,210.64593375L600,211.32994499999998L605,211.94361L610,212.48452125L615,212.94765L620,213.32834999999994L625,213.62230124999994L630,213.82808624999998L635,213.94507499999997L640,213.97096125L645,213.90368624999996L650,213.74227124999996L655,213.48734624999997L660,213.14106L665,212.70705750000002L670,212.19026625000006L675,211.59555749999998L680,210.92623874999998L685,210.18643875L690,209.383335L695,208.52473499999994L700,207.61833374999998L705,206.6699025L710,205.68450375000003L715,204.66612000000006L720,203.61904875L725,202.54801499999994L730,201.45838500000002L735,200.35622250000006L740,199.24881750000006L745,198.14385375000006L750,197.05025249999994" style="fill: none; stroke: #E18B95; stroke-width: 2; stroke-dasharray: 4,1;"></path></g></g><path class="foreground" d="" style="display: none; fill: none;"></path></g><g transform="translate(0,0)"><path class="background" d="M0,0h750v450h-750Z" style="fill: none;"></path><g><g class="mark-line role-mark layer_1_marks"><path d="M350,126.74521124999994L355,130.31542124999999L359.99999999999994,134.0575762500001L365.00000000000006,137.94312374999996L370,141.94775250000004L375,146.0513137500001L380,150.23873249999994L384.99999999999994,154.49873625000004L390.00000000000006,158.82408000000004L395,163.21042125L400,167.65336125000002L405,172.14563249999998L409.99999999999994,176.6745899999999L415.00000000000006,181.220625L420,185.76093374999994L425,190.27850624999996L430,194.76367875000005L434.99999999999994,199.21711499999992L440.00000000000006,203.64431625000003L445,208.056285L450,212.46157125L455,216.86077125L459.99999999999994,221.25190500000005L465.00000000000006,225.63805500000004L470,230.02316999999996L475,234.4103774999999L480,238.80187124999998L484.99999999999994,243.19954124999998L490.00000000000006,247.60583999999992L495,252.02373749999998L500,256.45524750000004L505,260.90139375L510,265.362975L515,269.84269125000003L520,274.34343375L525,278.86676625L530,283.41212625L535,287.97770249999996L540,292.56071625000004L545,297.15796124999997L550,301.7654774999999L555,306.3802275L560,310.998195L565,315.61289999999997L570,320.21665874999997L575,324.80226000000005L580,329.36466375000003L585,333.899145L590,338.398515L595,342.85461749999996L600,347.2605675L605,351.6119325L610,355.9047525L615,360.13359375L620,364.29314624999995L625,368.37919125L630,372.38948999999997L635,376.3227375L640,380.17798875L645,383.95483874999996L650,387.65395125L655,391.27568625L660,394.82224875L665,398.2977L670,401.70760875L675,405.05728500000004L680,408.3495975L685,411.58810125L690,414.77974875L695,417.93289875L700,421.0546725L705,424.1496825L710,427.22074124999995L715,430.26951375000004L720,433.29704625L725,436.30518375L730,439.29619875000003L735,442.27276875L740,445.23874125000003L745,448.19886375L750,451.15828875" style="fill: none; stroke: #E18B95; stroke-width: 2; stroke-dasharray: 4,1;"></path></g></g><path class="foreground" d="" style="display: none; fill: none;"></path></g><g transform="translate(0,0)"><path class="background" d="M0,0h750v450h-750Z" style="fill: none;"></path><g><g class="mark-line role-mark layer_1_marks"><path d="M350,126.74521124999994L355,129.73017375L359.99999999999994,132.7898475L365.00000000000006,135.9140175L370,139.09404375L375,142.32244500000007L380,145.59300000000002L384.99999999999994,148.90074750000005L390.00000000000006,152.24182875000008L395,155.61334124999996L400,159.01229249999997L405,162.43556625000002L409.99999999999994,165.87781875000002L415.00000000000006,169.33334624999995L420,172.79457749999995L425,176.25631499999994L430,179.71490249999997L434.99999999999994,183.16985624999998L440.00000000000006,186.62187375000008L445,190.07323874999997L450,193.52568374999996L455,196.97889375000003L459.99999999999994,200.43236249999998L465.00000000000006,203.88684375L470,207.34362000000007L475,210.80387250000007L480,214.2681300000001L484.99999999999994,217.7370225L490.00000000000006,221.21149499999999L495,224.692605L500,228.1815L505,231.67783124999997L510,235.18225124999995L515,238.6968862500001L520,242.22391874999994L525,245.76505874999995L530,249.31983375L535,252.88644374999998L540,256.46344875L545,260.04882375L550,263.63982375000006L555,267.23431124999996L560,270.82918125L565,274.41991125000004L570,278.00118L575,281.567925L580,285.11634374999994L585,288.64229624999996L590,292.14007875000004L595,295.60336875L600,299.0263275L605,302.4055575L610,305.7374025L615,309.01631625000005L620,312.23669625L625,315.39346874999995L630,318.48494624999995L635,321.50995874999995L640,324.46743749999996L645,327.35701125L650,330.178995L655,332.9342325L660,335.6245575L665,338.253795L670,340.82686125000004L675,343.348785L680,345.8222999999999L685,348.25158L690,350.64419625L695,353.00899125L700,355.35353625L705,357.68349L710,360.00210375L715,362.312145L720,364.61524499999996L725,366.9143625L730,369.21267L735,371.5143075L740,373.8247875L745,376.149825L750,378.49667625" style="fill: none; stroke: #E18B95; stroke-width: 2; stroke-dasharray: 4,1;"></path></g></g><path class="foreground" d="" style="display: none; fill: none;"></path></g><g transform="translate(0,0)"><path class="background" d="M0,0h750v450h-750Z" style="fill: none;"></path><g><g class="mark-line role-mark layer_1_marks"><path d="M350,126.74521124999994L355,128.46993750000004L359.99999999999994,129.75447375000005L365.00000000000006,130.77111375L370,131.77477124999993L375,132.95260125000004L380,134.35540875000004L384.99999999999994,135.93187125000003L390.00000000000006,137.64522374999993L395,139.42386000000002L400,141.214815L405,143.01631124999994L409.99999999999994,144.84828374999998L415.00000000000006,146.7014850000001L420,148.56698249999997L425,150.43627124999998L430,152.30161125000006L434.99999999999994,154.1569274999999L440.00000000000006,155.99719125L445,157.81822875000006L450,159.61557375L455,161.38535625L459.99999999999994,163.12195125000002L465.00000000000006,164.81705624999998L470,166.46128875L475,168.04794375000003L480,169.5736575L484.99999999999994,171.03813749999998L490.00000000000006,172.44141750000009L495,173.78483624999996L500,175.06994625000004L505,176.29692749999998L510,177.46766999999997L515,178.58869874999996L520,179.66907000000003L525,180.71609624999994L530,181.73224125L535,182.71911374999996L540,183.68094375000004L545,184.62232125000003L550,185.54664375000007L555,186.45439499999998L560,187.34546249999997L565,188.2207575L570,189.08133750000005L575,189.92614499999993L580,190.75384125000008L585,191.55993750000007L590,192.33631125000002L595,193.07234250000008L600,193.75862624999996L605,194.39124750000005L610,194.96575124999998L615,195.471855L620,195.89769L625,196.23453750000002L630,196.47830249999996L635,196.62791625L640,196.68150000000003L645,196.6382775L650,196.49856374999996L655,196.26322500000006L660,195.93521999999996L665,195.51961125000003L670,195.02433L675,194.45623875L680,193.82029875L685,193.12261875L690,192.37452750000003L695,191.5888725000001L700,190.77739874999997L705,189.9485100000001L710,189.1089L715,188.26343999999997L720,187.417035L725,186.57510750000003L730,185.74456499999997L735,184.93315874999996L740,184.15055249999992L745,183.40732125L750,182.71567124999996" style="fill: none; stroke: #E18B95; stroke-width: 2; stroke-dasharray: 4,1;"></path></g></g><path class="foreground" d="" style="display: none; fill: none;"></path></g><g transform="translate(0,0)"><path class="background" d="M0,0h750v450h-750Z" style="fill: none;"></path><g><g class="mark-line role-mark layer_1_marks"><path d="M350,126.74521124999994L355,128.65107375L359.99999999999994,130.19642999999994L365.00000000000006,131.54313375000004L370,132.9297637500001L375,134.5303125L380,136.39393125L384.99999999999994,138.47132250000004L390.00000000000006,140.71958999999998L395,143.06109750000005L400,145.43722124999996L405,147.8421675L409.99999999999994,150.29485874999995L415.00000000000006,152.78841L420,155.31724125L425,157.875435L430,160.45464375L434.99999999999994,163.04555249999996L440.00000000000006,165.63975750000003L445,168.22909124999998L450,170.80549875000008L455,173.36363625000004L459.99999999999994,175.8965625L465.00000000000006,178.39365749999996L470,180.84252375L475,183.234195L480,185.56359750000001L484.99999999999994,187.82985375000004L490.00000000000006,190.03396499999994L495,192.17891249999997L500,194.26795875L505,196.29987749999992L510,198.27560250000002L515,200.20130999999998L520,202.08547124999998L525,203.93473500000005L530,205.75055249999994L535,207.53250750000004L540,209.28242250000008L545,211.00201875000002L550,212.69156625000002L555,214.35035624999998L560,215.97597000000005L565,217.5651675000001L570,219.11398874999998L575,220.61760749999996L580,222.07365L585,223.47718874999995L590,224.81778375L595,226.08241874999993L600,227.26034999999996L605,228.34859624999999L610,229.34518875L615,230.24417624999992L620,231.0396975L625,231.72807374999996L630,232.30884375000002L635,232.78487625L640,233.16293249999993L645,233.45229375000005L650,233.66188125000002L655,233.79639750000004L660,233.8613775L665,233.86891500000002L670,233.83244249999998L675,233.76436875L680,233.67135375000004L685,233.55914624999994L690,233.43663374999994L695,233.31264750000003L700,233.19435375000006L705,233.08710750000003L710,232.99435125L715,232.91786249999998L720,232.85869875000003L725,232.81736625L730,232.7942137499999L735,232.78926375L740,232.8026175L745,232.83395999999996L750,232.88295375" style="fill: none; stroke: #E18B95; stroke-width: 2; stroke-dasharray: 4,1;"></path></g></g><path class="foreground" d="" style="display: none; fill: none;"></path></g><g transform="translate(0,0)"><path class="background" d="M0,0h750v450h-750Z" style="fill: none;"></path><g><g class="mark-line role-mark layer_1_marks"><path d="M350,126.74521124999994L355,129.81945375000006L359.99999999999994,132.95948625L365.00000000000006,136.15557750000002L370,139.3983L375,142.67885625000005L380,145.98732374999997L384.99999999999994,149.31464624999998L390.00000000000006,152.65165499999998L395,155.98966499999995L400,159.32099250000005L405,162.63988875000004L409.99999999999994,165.9426525L415.00000000000006,169.22867625000003L420,172.49919750000004L425,175.75515000000004L430,178.99503749999997L434.99999999999994,182.21773500000006L440.00000000000006,185.42368125000002L445,188.61487874999995L450,191.79264374999997L455,194.95765125L459.99999999999994,198.11054249999998L465.00000000000006,201.25366874999992L470,204.38914499999998L475,207.51964875000002L480,210.64609124999998L484.99999999999994,213.76955249999997L490.00000000000006,216.89184375L495,220.01462999999998L500,223.13955374999995L505,226.26673875000003L510,229.39658999999997L515,232.53089624999998L520,235.67157000000006L525,238.81979249999998L530,241.97481000000008L535,245.13456375000004L540,248.29628625000004L545,251.45615249999997L550,254.61056250000001L555,257.75636625000004L560,260.89067250000005L565,264.00843000000003L570,267.10410375000004L575,270.17218125000005L580,273.2090175L585,276.2104725L590,279.17089875000005L595,282.08397375L600,284.94422999999995L605,287.74823625L610,290.49310125L615,293.1746175L620,295.78837500000003L625,298.33117875000005L630,300.80159999999995L635,303.1990537500001L640,305.52307875L645,307.77349499999997L650,309.95107875L655,312.05701125L660,314.09350874999996L665,316.06520625L670,317.97793125000004L675,319.83707250000003L680,321.6459825L685,323.4086775L690,325.131885L695,326.82373875L700,328.49129250000004L705,330.13967625000004L710,331.77213L715,333.391725L720,335.00054250000005L725,336.6014625L730,338.19760125L735,339.79307625L740,341.392365L745,343.00074374999997L750,344.62418625000004" style="fill: none; stroke: #E18B95; stroke-width: 2; stroke-dasharray: 4,1;"></path></g></g><path class="foreground" d="" style="display: none; fill: none;"></path></g><g transform="translate(0,0)"><path class="background" d="M0,0h750v450h-750Z" style="fill: none;"></path><g><g class="mark-line role-mark layer_1_marks"><path d="M350,126.74521124999994L355,129.96275625L359.99999999999994,133.29127124999997L365.00000000000006,136.71894375L370,140.2344337499999L375,143.82790875L380,147.48967125000004L384.99999999999994,151.21156499999995L390.00000000000006,154.98582749999997L395,158.80555124999995L400,162.6639524999999L405,166.55509125000006L409.99999999999994,170.47276875L415.00000000000006,174.41075249999997L420,178.36264125000002L425,182.32377749999992L430,186.28930125000005L434.99999999999994,190.25672625000004L440.00000000000006,194.22492749999992L445,198.19394999999994L450,202.16356875000002L455,206.13279375000002L459.99999999999994,210.0996225000001L465.00000000000006,214.06370625000008L470,218.02443749999995L475,221.98164750000007L480,225.93459374999995L484.99999999999994,229.88337749999997L490.00000000000006,233.8305075L495,237.77939250000003L500,241.73232750000003L505,245.68841250000006L510,249.64671375L515,253.60796249999996L520,257.57368875L525,261.54391499999997L530,265.5165375L535,269.4875175L540,273.45133125L545,277.40145375000003L550,281.331135L555,285.2358525L560,289.11000375L565,292.94438625L570,296.72854875L575,300.45316499999996L580,304.11318375L585,307.70378999999997L590,311.21681625L595,314.64295875000005L600,317.97561375L605,321.21147375000004L610,324.3497625L615,327.38999625L620,330.33245625L625,333.17902124999995L630,335.930535L635,338.59009125L640,341.16440624999996L645,343.66221L650,346.09185L655,348.4571625L660,350.76283874999996L665,353.01850874999997L670,355.23577124999997L675,357.42394125000004L680,359.587485L685,361.72921499999995L690,363.8525625L695,365.95994625L700,368.0535825L705,370.13401125L710,372.20146875L715,374.25480749999997L720,376.29241875L725,378.31165875L730,380.3090625L735,382.28014125L740,384.21957375L745,386.12115L750,387.97813125" style="fill: none; stroke: #E18B95; stroke-width: 2; stroke-dasharray: 4,1;"></path></g></g><path class="foreground" d="" style="display: none; fill: none;"></path></g><g transform="translate(0,0)"><path class="background" d="M0,0h750v450h-750Z" style="fill: none;"></path><g><g class="mark-line role-mark layer_1_marks"><path d="M350,126.74521124999994L355,129.91134375000007L359.99999999999994,133.20195750000005L365.00000000000006,136.60508250000007L370,140.11092L375,143.70961499999996L380,147.39337125000003L384.99999999999994,151.155L390.00000000000006,154.98875249999998L395,158.88940875L400,162.85179374999996L405,166.87053000000006L409.99999999999994,170.93883374999993L415.00000000000006,175.04859374999995L420,179.19094500000006L425,183.35885625000003L430,187.54665749999998L434.99999999999994,191.75158125L440.00000000000006,195.97178249999996L445,200.20682250000004L450,204.45533999999995L455,208.71587250000002L459.99999999999994,212.98550624999996L465.00000000000006,217.262745L470,221.54561999999999L475,225.83298374999995L480,230.12366625000007L484.99999999999994,234.41719500000005L490.00000000000006,238.7153475L495,243.02085749999995L500,247.33550249999996L505,251.65848374999993L510,255.9884175L515,260.32663125L520,264.67520625000003L525,269.03426625000003L530,273.40224750000004L535,277.77517875L540,282.14920125000003L545,286.518915L550,290.87890875L555,295.22506500000003L560,299.5521075L565,303.85096875L570,308.1112425L575,312.323895L580,316.48375124999995L585,320.58610875L590,324.622215L595,328.5830925L600,332.46149625L605,336.25417500000003L610,339.95941875000005L615,343.57555125L620,347.1012L625,350.53687125L630,353.88258749999994L635,357.14106000000004L640,360.31847624999995L645,363.42318374999996L650,366.4631025L655,369.44150625L660,372.36256875L665,375.23547L670,378.07050375L675,380.87631L680,383.6572425L685,386.4156525L690,389.15559L695,391.88064375L700,394.59303L705,397.29373875L710,399.98266874999996L715,402.65846999999997L720,405.31885875L725,407.9608425L730,410.58090000000004L735,413.17450875L740,415.73719125L745,418.2628725L750,420.745725" style="fill: none; stroke: #E18B95; stroke-width: 2; stroke-dasharray: 4,1;"></path></g></g><path class="foreground" d="" style="display: none; fill: none;"></path></g></g><g class="mark-text role-mark layer_2_marks"><text text-anchor="start" transform="translate(770,201.05025249999994)" style="font-family: Ubuntu Mono; font-size: 13px; fill: #bd3434; opacity: 0.9;">high variant</text><text text-anchor="start" transform="translate(770,455.15828875)" style="font-family: Ubuntu Mono; font-size: 13px; fill: #bd3434; opacity: 0.9;">low variant</text></g><g class="mark-text role-mark layer_3_marks"><text text-anchor="start" transform="translate(770,382.49667625)" style="font-family: Ubuntu Mono; font-size: 13px; fill: black; opacity: 0.9;">constant fertility</text><text text-anchor="start" transform="translate(770,186.71567124999996)" style="font-family: Ubuntu Mono; font-size: 13px; fill: black; opacity: 0.9;">instant replacement</text><text text-anchor="start" transform="translate(770,236.88295375)" style="font-family: Ubuntu Mono; font-size: 13px; fill: black; opacity: 0.9;">momentum</text><text text-anchor="start" transform="translate(770,391.97813125)" style="font-family: Ubuntu Mono; font-size: 13px; fill: black; opacity: 0.9;">constant mortality</text><text text-anchor="start" transform="translate(770,424.745725)" style="font-family: Ubuntu Mono; font-size: 13px; fill: black; opacity: 0.9;">no change</text></g><g class="mark-text role-mark layer_4_marks"><text text-anchor="start" transform="translate(770,344.09866500000004)" style="font-family: Ubuntu Mono; font-size: 13px; fill: #bd3434; opacity: 0.9;">medium variant</text></g><g class="mark-text role-mark layer_5_marks"><text text-anchor="start" transform="translate(770,352.62418625000004)" style="font-family: Ubuntu Mono; font-size: 13px; fill: black; opacity: 0.9;">zero migration</text></g><g class="mark-text role-mark layer_6_marks"><text text-anchor="middle" transform="translate(180,-11)" style="font-family: sans-serif; font-size: 13px; fill: #3288bd;">estimate</text></g><g class="mark-text role-mark layer_7_marks"><text text-anchor="middle" transform="translate(540,-11)" style="font-family: sans-serif; font-size: 13px; fill: #d53e4f;">projection</text></g><g class="mark-text role-mark layer_8_marks"><text text-anchor="middle" transform="translate(775,509)" style="font-family: sans-serif; font-size: 12px; fill: #8D949F;">Data: UN World Population Prospects</text></g><g class="mark-group role-title"><g transform="translate(-21,-96)"><path class="background" d="M0,0h0v0h0Z" style="pointer-events: none; fill: none;"></path><g><g class="mark-text role-title-text" style="pointer-events: none;"><text text-anchor="start" transform="translate(0,24)" style="font-family: Ubuntu Mono; font-size: 30px; font-weight: bold; fill: #5D646F; opacity: 1;">Ukraine Population Prospects</text></g><g class="mark-text role-title-subtitle" style="pointer-events: none;"><text text-anchor="start" transform="translate(0,47)" style="font-family: Ubuntu Mono; font-size: 18px; fill: #5D646F; opacity: 1;"><tspan>Total population, million</tspan><tspan x="0" dy="20"> </tspan></text></g></g><path class="foreground" d="" style="pointer-events: none; display: none; fill: none;"></path></g></g></g><path class="foreground" d="" style="display: none; fill: none;"></path></g></g></g></svg>